<svg xmlns="http://www.w3.org/2000/svg" width="2400" height="1350" viewBox="0 0 2400 1350" role="img" aria-label="Historical brick building with glass tech wing">
  <defs>
    <linearGradient id="g0" x1="0" y1="0" x2="1" y2="1">
      <stop offset="0" stop-color="#05070c"/>
      <stop offset="1" stop-color="#0b1020"/>
    </linearGradient>
    <radialGradient id="goldGlow" cx="30%" cy="24%" r="70%">
      <stop offset="0" stop-color="rgba(212,175,55,.26)"/>
      <stop offset="0.55" stop-color="rgba(212,175,55,.08)"/>
      <stop offset="1" stop-color="rgba(212,175,55,0)"/>
    </radialGradient>
    <radialGradient id="blueGlow" cx="80%" cy="18%" r="70%">
      <stop offset="0" stop-color="rgba(160,220,255,.10)"/>
      <stop offset="1" stop-color="rgba(120,180,255,0)"/>
    </radialGradient>
    <filter id="blur" x="-20%" y="-20%" width="140%" height="140%">
      <feGaussianBlur stdDeviation="8"/>
    </filter>
  </defs>

  <rect width="2400" height="1350" fill="url(#g0)"/>
  <rect width="2400" height="1350" fill="url(#goldGlow)"/>
  <rect width="2400" height="1350" fill="url(#blueGlow)"/>

  <g opacity="0.8"><path d="M 2310.1 75.7 Q 1778.5 -198.1 995.8 -91.1" stroke="rgba(243,210,122,0.131)" stroke-width="1.78" fill="none"/><path d="M 808.6 -56.8 Q 1109.4 736.2 918.1 1223.2" stroke="rgba(243,210,122,0.069)" stroke-width="1.47" fill="none"/><path d="M 1771.0 833.6 Q 1591.0 1006.9 1048.1 1304.3" stroke="rgba(243,210,122,0.118)" stroke-width="2.17" fill="none"/><path d="M 2113.6 419.7 Q 1130.9 620.0 285.9 426.6" stroke="rgba(243,210,122,0.062)" stroke-width="1.15" fill="none"/><path d="M 786.8 171.8 Q 1260.8 551.2 2389.1 1317.8" stroke="rgba(243,210,122,0.067)" stroke-width="1.83" fill="none"/><path d="M 1806.9 896.2 Q 1508.9 719.9 1609.1 458.4" stroke="rgba(243,210,122,0.129)" stroke-width="1.75" fill="none"/><path d="M 302.5 1217.7 Q 1095.2 990.2 1273.9 325.3" stroke="rgba(243,210,122,0.071)" stroke-width="1.55" fill="none"/><path d="M 2586.3 1138.5 Q 1907.5 726.4 472.8 365.0" stroke="rgba(243,210,122,0.080)" stroke-width="1.61" fill="none"/><path d="M 2472.1 977.6 Q 1876.1 851.2 1693.6 523.6" stroke="rgba(243,210,122,0.131)" stroke-width="1.09" fill="none"/><path d="M 2557.5 1096.8 Q 1803.8 999.9 1676.7 1339.4" stroke="rgba(243,210,122,0.089)" stroke-width="1.11" fill="none"/><path d="M 2552.3 113.2 Q 2192.5 159.4 1109.2 236.3" stroke="rgba(243,210,122,0.100)" stroke-width="1.99" fill="none"/><path d="M 1288.5 1388.4 Q 966.3 631.4 277.0 288.8" stroke="rgba(243,210,122,0.108)" stroke-width="1.66" fill="none"/><path d="M 243.3 680.0 Q 1012.7 1114.7 1855.6 1411.9" stroke="rgba(243,210,122,0.108)" stroke-width="1.83" fill="none"/><path d="M 1693.1 536.4 Q 2376.9 588.2 2355.9 661.1" stroke="rgba(243,210,122,0.089)" stroke-width="1.27" fill="none"/></g>
  <g><circle cx="589.2" cy="1295.4" r="5.1" fill="rgba(212,175,55,0.082)"/><circle cx="2377.4" cy="1328.9" r="4.1" fill="rgba(212,175,55,0.090)"/><circle cx="1768.9" cy="448.6" r="5.7" fill="rgba(212,175,55,0.101)"/><circle cx="1520.0" cy="420.3" r="5.6" fill="rgba(212,175,55,0.139)"/><circle cx="1537.4" cy="207.5" r="2.8" fill="rgba(212,175,55,0.055)"/><circle cx="2350.5" cy="371.7" r="5.1" fill="rgba(212,175,55,0.126)"/><circle cx="2300.2" cy="1133.6" r="4.8" fill="rgba(212,175,55,0.067)"/><circle cx="473.5" cy="924.3" r="3.3" fill="rgba(212,175,55,0.067)"/><circle cx="2083.5" cy="648.1" r="2.9" fill="rgba(212,175,55,0.105)"/><circle cx="390.8" cy="116.7" r="2.4" fill="rgba(212,175,55,0.061)"/><circle cx="2278.6" cy="816.1" r="5.6" fill="rgba(212,175,55,0.090)"/><circle cx="1612.9" cy="776.4" r="5.6" fill="rgba(212,175,55,0.086)"/><circle cx="2389.3" cy="519.5" r="5.9" fill="rgba(212,175,55,0.059)"/><circle cx="401.9" cy="970.0" r="6.0" fill="rgba(212,175,55,0.078)"/><circle cx="1589.8" cy="554.1" r="2.2" fill="rgba(212,175,55,0.099)"/><circle cx="517.4" cy="380.9" r="2.7" fill="rgba(212,175,55,0.078)"/><circle cx="645.6" cy="280.2" r="2.8" fill="rgba(212,175,55,0.065)"/><circle cx="374.1" cy="767.7" r="5.3" fill="rgba(212,175,55,0.117)"/><circle cx="2061.2" cy="509.5" r="5.8" fill="rgba(212,175,55,0.081)"/><circle cx="88.2" cy="471.1" r="3.4" fill="rgba(212,175,55,0.134)"/><circle cx="2039.0" cy="513.8" r="4.5" fill="rgba(212,175,55,0.116)"/><circle cx="1951.8" cy="924.7" r="3.3" fill="rgba(212,175,55,0.099)"/><circle cx="1004.3" cy="1125.3" r="5.7" fill="rgba(212,175,55,0.101)"/><circle cx="167.8" cy="977.3" r="3.3" fill="rgba(212,175,55,0.057)"/><circle cx="2169.3" cy="1094.0" r="5.0" fill="rgba(212,175,55,0.127)"/><circle cx="1569.7" cy="1345.6" r="5.2" fill="rgba(212,175,55,0.106)"/><circle cx="1829.7" cy="573.9" r="4.5" fill="rgba(212,175,55,0.113)"/><circle cx="1139.4" cy="442.0" r="2.2" fill="rgba(212,175,55,0.124)"/><circle cx="1044.9" cy="743.1" r="3.4" fill="rgba(212,175,55,0.068)"/><circle cx="2061.5" cy="1305.3" r="4.5" fill="rgba(212,175,55,0.122)"/><circle cx="2043.8" cy="460.2" r="4.9" fill="rgba(212,175,55,0.102)"/><circle cx="852.3" cy="1156.6" r="5.1" fill="rgba(212,175,55,0.076)"/><circle cx="178.2" cy="496.0" r="2.7" fill="rgba(212,175,55,0.071)"/><circle cx="706.7" cy="640.7" r="5.8" fill="rgba(212,175,55,0.087)"/><circle cx="614.6" cy="575.9" r="5.1" fill="rgba(212,175,55,0.058)"/><circle cx="872.1" cy="839.2" r="2.3" fill="rgba(212,175,55,0.110)"/><circle cx="1388.5" cy="463.4" r="5.3" fill="rgba(212,175,55,0.126)"/><circle cx="156.0" cy="787.4" r="4.1" fill="rgba(212,175,55,0.113)"/></g>

  <g filter="url(#blur)" opacity="0.9">
    <circle cx="1752.0" cy="621.0" r="210" fill="rgba(255,255,255,.04)"/>
  </g>

  <g><circle cx="1752.0" cy="621.0" r="160" fill="none" stroke="rgba(212,175,55,0.180)" stroke-width="1.2"/><circle cx="1752.0" cy="621.0" r="215" fill="none" stroke="rgba(212,175,55,0.150)" stroke-width="1.2"/><circle cx="1752.0" cy="621.0" r="270" fill="none" stroke="rgba(212,175,55,0.120)" stroke-width="1.2"/><circle cx="1752.0" cy="621.0" r="325" fill="none" stroke="rgba(212,175,55,0.090)" stroke-width="1.2"/></g>

  <g>
    <rect x="1562.0" y="555.0" width="380" height="132" rx="26" fill="rgba(255,255,255,.05)" stroke="rgba(255,255,255,.10)"/>
    <text x="1752.0" y="613.0" text-anchor="middle" font-family="ui-sans-serif,system-ui" font-size="50" fill="rgba(245,247,255,.92)" letter-spacing="2">W3</text>
    <text x="1752.0" y="655.0" text-anchor="middle" font-family="ui-sans-serif,system-ui" font-size="22" fill="rgba(245,247,255,.60)" letter-spacing="1">w3.boston</text>
  </g>

  <g opacity="0.9">
    <circle cx="432.0" cy="1053.0" r="280" fill="rgba(212,175,55,.06)"/>
    <circle cx="432.0" cy="1053.0" r="279" fill="none" stroke="rgba(255,255,255,.06)"/>
  </g>
</svg>